<mxfile host="app.diagrams.net" modified="2024-05-19T15:20:22.597Z" agent="Mozilla/5.0 (Windows NT 10.0; Win64; x64; rv:126.0) Gecko/20100101 Firefox/126.0" etag="8p5EEBXWa14dR6HVM6DI" version="24.4.4" type="github">
  <diagram name="Page-1" id="ywzD3UhgZtG4djPLUcJU">
    <mxGraphModel dx="794" dy="642" grid="1" gridSize="8" guides="1" tooltips="1" connect="1" arrows="1" fold="1" page="1" pageScale="1" pageWidth="827" pageHeight="1169" math="0" shadow="0">
      <root>
        <mxCell id="0" />
        <mxCell id="1" parent="0" />
        <mxCell id="nI5EKrdtgNmoE0d4Wx78-1" style="edgeStyle=orthogonalEdgeStyle;rounded=0;orthogonalLoop=1;jettySize=auto;html=1;entryX=0.5;entryY=0;entryDx=0;entryDy=0;" edge="1" parent="1" source="nI5EKrdtgNmoE0d4Wx78-2" target="nI5EKrdtgNmoE0d4Wx78-4">
          <mxGeometry relative="1" as="geometry" />
        </mxCell>
        <mxCell id="nI5EKrdtgNmoE0d4Wx78-2" value="&lt;font style=&quot;font-size: 16px;&quot;&gt;&lt;b&gt;Start&lt;/b&gt;&lt;/font&gt;" style="ellipse;whiteSpace=wrap;html=1;" vertex="1" parent="1">
          <mxGeometry x="362" y="38" width="120" height="80" as="geometry" />
        </mxCell>
        <mxCell id="nI5EKrdtgNmoE0d4Wx78-3" style="edgeStyle=orthogonalEdgeStyle;rounded=0;orthogonalLoop=1;jettySize=auto;html=1;entryX=0.5;entryY=0;entryDx=0;entryDy=0;" edge="1" parent="1" source="nI5EKrdtgNmoE0d4Wx78-4" target="nI5EKrdtgNmoE0d4Wx78-9">
          <mxGeometry relative="1" as="geometry" />
        </mxCell>
        <mxCell id="nI5EKrdtgNmoE0d4Wx78-4" value="Get username" style="shape=parallelogram;perimeter=parallelogramPerimeter;whiteSpace=wrap;html=1;fixedSize=1;" vertex="1" parent="1">
          <mxGeometry x="362" y="155" width="120" height="60" as="geometry" />
        </mxCell>
        <mxCell id="nI5EKrdtgNmoE0d4Wx78-5" style="edgeStyle=orthogonalEdgeStyle;rounded=0;orthogonalLoop=1;jettySize=auto;html=1;entryX=0;entryY=0.5;entryDx=0;entryDy=0;" edge="1" parent="1" source="nI5EKrdtgNmoE0d4Wx78-6" target="nI5EKrdtgNmoE0d4Wx78-19">
          <mxGeometry relative="1" as="geometry">
            <Array as="points">
              <mxPoint x="140" y="976" />
            </Array>
          </mxGeometry>
        </mxCell>
        <mxCell id="nI5EKrdtgNmoE0d4Wx78-6" value="Display Error&lt;br&gt;Message" style="shape=parallelogram;perimeter=parallelogramPerimeter;whiteSpace=wrap;html=1;fixedSize=1;" vertex="1" parent="1">
          <mxGeometry x="80" y="616" width="120" height="60" as="geometry" />
        </mxCell>
        <mxCell id="nI5EKrdtgNmoE0d4Wx78-7" style="edgeStyle=orthogonalEdgeStyle;rounded=0;orthogonalLoop=1;jettySize=auto;html=1;exitX=0;exitY=0.5;exitDx=0;exitDy=0;entryX=0.5;entryY=0;entryDx=0;entryDy=0;" edge="1" parent="1" source="nI5EKrdtgNmoE0d4Wx78-9" target="nI5EKrdtgNmoE0d4Wx78-6">
          <mxGeometry relative="1" as="geometry" />
        </mxCell>
        <mxCell id="nI5EKrdtgNmoE0d4Wx78-8" style="edgeStyle=orthogonalEdgeStyle;rounded=0;orthogonalLoop=1;jettySize=auto;html=1;entryX=0.5;entryY=0;entryDx=0;entryDy=0;" edge="1" parent="1" source="nI5EKrdtgNmoE0d4Wx78-9" target="nI5EKrdtgNmoE0d4Wx78-23">
          <mxGeometry relative="1" as="geometry" />
        </mxCell>
        <mxCell id="nI5EKrdtgNmoE0d4Wx78-9" value="&lt;div&gt;Valid Username&lt;/div&gt;&lt;div&gt;&lt;br&gt;&lt;/div&gt;" style="rhombus;whiteSpace=wrap;html=1;" vertex="1" parent="1">
          <mxGeometry x="382" y="264" width="80" height="80" as="geometry" />
        </mxCell>
        <mxCell id="nI5EKrdtgNmoE0d4Wx78-10" style="edgeStyle=orthogonalEdgeStyle;rounded=0;orthogonalLoop=1;jettySize=auto;html=1;entryX=0.5;entryY=0;entryDx=0;entryDy=0;" edge="1" parent="1" source="nI5EKrdtgNmoE0d4Wx78-11" target="nI5EKrdtgNmoE0d4Wx78-14">
          <mxGeometry relative="1" as="geometry" />
        </mxCell>
        <mxCell id="nI5EKrdtgNmoE0d4Wx78-11" value="Create Image of Random Pixels" style="rounded=0;whiteSpace=wrap;html=1;" vertex="1" parent="1">
          <mxGeometry x="362" y="616" width="120" height="60" as="geometry" />
        </mxCell>
        <mxCell id="nI5EKrdtgNmoE0d4Wx78-12" style="edgeStyle=orthogonalEdgeStyle;rounded=0;orthogonalLoop=1;jettySize=auto;html=1;entryX=0.5;entryY=0;entryDx=0;entryDy=0;" edge="1" parent="1" source="nI5EKrdtgNmoE0d4Wx78-14" target="nI5EKrdtgNmoE0d4Wx78-16">
          <mxGeometry relative="1" as="geometry">
            <Array as="points">
              <mxPoint x="422" y="792" />
              <mxPoint x="332" y="792" />
            </Array>
          </mxGeometry>
        </mxCell>
        <mxCell id="nI5EKrdtgNmoE0d4Wx78-13" style="edgeStyle=orthogonalEdgeStyle;rounded=0;orthogonalLoop=1;jettySize=auto;html=1;exitX=0.5;exitY=1;exitDx=0;exitDy=0;entryX=0.5;entryY=0;entryDx=0;entryDy=0;" edge="1" parent="1" source="nI5EKrdtgNmoE0d4Wx78-14" target="nI5EKrdtgNmoE0d4Wx78-18">
          <mxGeometry relative="1" as="geometry">
            <Array as="points">
              <mxPoint x="422" y="792" />
              <mxPoint x="508" y="792" />
            </Array>
          </mxGeometry>
        </mxCell>
        <mxCell id="nI5EKrdtgNmoE0d4Wx78-14" value="&lt;div&gt;Encode image &lt;br&gt;&lt;/div&gt;&lt;div&gt;Using LSB&lt;/div&gt;&lt;div&gt;using binary username&lt;br&gt;&lt;/div&gt;" style="rounded=0;whiteSpace=wrap;html=1;" vertex="1" parent="1">
          <mxGeometry x="362" y="712" width="120" height="60" as="geometry" />
        </mxCell>
        <mxCell id="nI5EKrdtgNmoE0d4Wx78-15" style="edgeStyle=orthogonalEdgeStyle;rounded=0;orthogonalLoop=1;jettySize=auto;html=1;entryX=0.5;entryY=0;entryDx=0;entryDy=0;" edge="1" parent="1" source="nI5EKrdtgNmoE0d4Wx78-16" target="nI5EKrdtgNmoE0d4Wx78-19">
          <mxGeometry relative="1" as="geometry" />
        </mxCell>
        <mxCell id="nI5EKrdtgNmoE0d4Wx78-16" value="&lt;div&gt;Write original&lt;/div&gt;&lt;div&gt;image&amp;nbsp;&lt;/div&gt;&lt;div&gt;data to file&lt;/div&gt;&lt;div&gt;for comparison&lt;br&gt;&lt;/div&gt;" style="shape=parallelogram;perimeter=parallelogramPerimeter;whiteSpace=wrap;html=1;fixedSize=1;" vertex="1" parent="1">
          <mxGeometry x="272" y="816" width="120" height="60" as="geometry" />
        </mxCell>
        <mxCell id="nI5EKrdtgNmoE0d4Wx78-17" style="edgeStyle=orthogonalEdgeStyle;rounded=0;orthogonalLoop=1;jettySize=auto;html=1;entryX=0.5;entryY=0;entryDx=0;entryDy=0;" edge="1" parent="1" source="nI5EKrdtgNmoE0d4Wx78-18" target="nI5EKrdtgNmoE0d4Wx78-19">
          <mxGeometry relative="1" as="geometry" />
        </mxCell>
        <mxCell id="nI5EKrdtgNmoE0d4Wx78-18" value="&lt;div&gt;Write encoded&lt;/div&gt;&lt;div&gt;image to file&lt;br&gt;&lt;/div&gt;" style="shape=parallelogram;perimeter=parallelogramPerimeter;whiteSpace=wrap;html=1;fixedSize=1;" vertex="1" parent="1">
          <mxGeometry x="448" y="816" width="120" height="60" as="geometry" />
        </mxCell>
        <mxCell id="nI5EKrdtgNmoE0d4Wx78-19" value="End" style="ellipse;whiteSpace=wrap;html=1;" vertex="1" parent="1">
          <mxGeometry x="362" y="936" width="120" height="80" as="geometry" />
        </mxCell>
        <mxCell id="nI5EKrdtgNmoE0d4Wx78-20" value="NO" style="text;html=1;align=center;verticalAlign=middle;whiteSpace=wrap;rounded=0;" vertex="1" parent="1">
          <mxGeometry x="328" y="280" width="60" height="30" as="geometry" />
        </mxCell>
        <mxCell id="nI5EKrdtgNmoE0d4Wx78-21" value="YES" style="text;html=1;align=center;verticalAlign=middle;whiteSpace=wrap;rounded=0;" vertex="1" parent="1">
          <mxGeometry x="408" y="336" width="60" height="30" as="geometry" />
        </mxCell>
        <mxCell id="nI5EKrdtgNmoE0d4Wx78-25" style="edgeStyle=orthogonalEdgeStyle;rounded=0;orthogonalLoop=1;jettySize=auto;html=1;" edge="1" parent="1" source="nI5EKrdtgNmoE0d4Wx78-23" target="nI5EKrdtgNmoE0d4Wx78-24">
          <mxGeometry relative="1" as="geometry" />
        </mxCell>
        <mxCell id="nI5EKrdtgNmoE0d4Wx78-23" value="&lt;div&gt;Convert username&lt;/div&gt;&lt;div&gt;to Binary &lt;br&gt;&lt;/div&gt;" style="rounded=0;whiteSpace=wrap;html=1;" vertex="1" parent="1">
          <mxGeometry x="362" y="416" width="120" height="60" as="geometry" />
        </mxCell>
        <mxCell id="nI5EKrdtgNmoE0d4Wx78-26" style="edgeStyle=orthogonalEdgeStyle;rounded=0;orthogonalLoop=1;jettySize=auto;html=1;entryX=0.5;entryY=0;entryDx=0;entryDy=0;" edge="1" parent="1" source="nI5EKrdtgNmoE0d4Wx78-24" target="nI5EKrdtgNmoE0d4Wx78-11">
          <mxGeometry relative="1" as="geometry" />
        </mxCell>
        <mxCell id="nI5EKrdtgNmoE0d4Wx78-24" value="&lt;div&gt;split loops for parallelism&lt;/div&gt;&lt;div&gt;(each row of pixels is created concurrenly)&lt;br&gt;&lt;/div&gt;" style="rounded=0;whiteSpace=wrap;html=1;" vertex="1" parent="1">
          <mxGeometry x="362" y="512" width="120" height="60" as="geometry" />
        </mxCell>
      </root>
    </mxGraphModel>
  </diagram>
</mxfile>
